<svg height="16" viewBox="0 0 16 16" width="16" xmlns="http://www.w3.org/2000/svg" xmlns:xlink="http://www.w3.org/1999/xlink"><linearGradient id="a" x1="16.835%" x2="159.599%" y1="63.497%" y2="19.863%"><stop offset="0" stop-color="#f69923"/><stop offset=".3123" stop-color="#f79a23"/><stop offset=".8383" stop-color="#e97826"/></linearGradient><linearGradient id="b"><stop offset=".3233" stop-color="#9e2064"/><stop offset=".6302" stop-color="#c92037"/><stop offset=".7514" stop-color="#cd2335"/><stop offset="1" stop-color="#e97826"/></linearGradient><linearGradient id="c" x1="-217.367%" x2="74.968%" xlink:href="#b" y1="394.12%" y2="13.671%"/><linearGradient id="d"><stop offset="0" stop-color="#282662"/><stop offset=".09548" stop-color="#662e8d"/><stop offset=".7882" stop-color="#9f2064"/><stop offset=".9487" stop-color="#cd2032"/></linearGradient><linearGradient id="e" x1="-20.305%" x2="125.697%" xlink:href="#d" y1="192.631%" y2="-136.581%"/><linearGradient id="f" x1="-79.867%" x2="146.442%" xlink:href="#b" y1="170.503%" y2="-44.384%"/><linearGradient id="g" x1="-18.376%" x2="164.728%" xlink:href="#d" y1="77.298%" y2="-41.36%"/><linearGradient id="h" x1="-34.831%" x2="110.897%" xlink:href="#b" y1="187.637%" y2="-51.127%"/><linearGradient id="i" x1="-129.474%" x2="66.599%" xlink:href="#b" y1="465.394%" y2="17.067%"/><g fill="none" fill-rule="evenodd"><path d="m7 1-4 4h4z" fill="#9aa7b0" fill-opacity=".8"/><path d="m5.64528351 15h-2.64528351v-9h5v-5h5v1.02283476c-1.2455812.96239827-2.725286 2.50234132-4.36400072 4.42589836-2.83094074 3.32301638-3.47215846 7.10904738-2.9011219 8.37542898zm7.35471649-4.8659542v4.8659542h-4.21114506c1.42074306-.8364711 3.04692726-2.5493378 4.21114506-4.8659542z" fill="#9aa7b0" fill-opacity=".8"/><g transform="matrix(.9961947 .08715574 -.08715574 .9961947 5.835704 2.032404)"><path d="m8.04923869.10577114c-.29771157.15384894-.78287116.58174129-1.37278112 1.20675258l.54029136.88463137c.37489605-.47116236.76081845-.89424693 1.14674086-1.25483037.02756588-.02884667.04410541-.04327001.04410541-.04327001-.01653953.01442334-.02756588.02884668-.04410541.04327001-.12680308.12019448-.5072123.50481682-1.07506955 1.27406149.55131771-.02403889 1.400347-.12019448 2.08949415-.22596562.20398755-1.00482585-.20398756-1.46637266-.20398756-1.46637266s-.51823865-.73078244-1.12468814-.41827679z" fill="url(#a)" fill-rule="nonzero"/><path d="m7.5994438 5.1539393h.0767234l-.53706382.10705092c-.03836171 0-.07672341.05352546-.07672341.05352546.15344681-.10705092.34525532-.10705092.53706383-.16057638zm-.52972609 1.58656714c-.20459574.10705092-.40919148.16057638-.61378723.21410184.20459575-.05352546.40919149-.16057638.61378723-.21410184zm-4.20837875 3.55294886c.00551318-.0144234.01102635-.0288467.01653953-.0384623.11577672-.27404338.23706662-.53847124.35284334-.79328353.13231625-.28846676.25911933-.57212573.3859224-.84136136.13231625-.28846676.26463251-.56251017.39694876-.83174581.13782943-.27885119.27014568-.5528946.40246193-.81251468.11026355-.21154229.21501391-.41827679.31976428-.61539574.03307906-.06730891.0716713-.12981004.10475037-.19711895.06615812-.12981003.13782943-.25481229.20398755-.37981455.06064495-.1153867.1212899-.22596562.18193485-.33173677.02205271-.03846223.03859224-.07211668.06064495-.11057892.00551318-.00480778.00551318-.00961556.01102635-.01923112l-.06615812.00480778-.0496186-.0913478c-.00551318.00961556-.01102635.01923112-.01653953.0240389-.09372401.16346449-.18744802.32692898-.28117204.49520125-.05513177.09615559-.10475036.19231117-.15988213.28846675-.14885579.26923564-.29219839.53847128-.435541.81251469s-.28668522.55289461-.42451464.8317458c-.13782943.27404342-.27014569.54808683-.39694876.81732247-.13231625.27404341-.25911933.54327904-.38040923.81251468-.12680307.27885119-.25360615.55770239-.37489605.83655361-.02756588.0625011-.05513177.1250022-.08269765.1875034-.09923719.2211578-.19296121.4423156-.28668522.6586657l.08269766.1442334.0716713-.0048078c0-.0048078.00551318-.0144233.00551318-.0192311.1212899-.2788512.23706662-.5577024.35835652-.826938z"/><g fill-rule="nonzero"><path d="m6.64520307 7.53859779c-.19382755.10705092-.40380739.21410184-.61378723.37467822.11306607-.05352546.20997984-.10705092.32304591-.16057638.09691377-.10705092.19382755-.16057638.29074132-.21410184z" fill="#be202e"/><path d="m6.64520307 7.53859779c-.19382755.10705092-.40380739.21410184-.61378723.37467822.11306607-.05352546.20997984-.10705092.32304591-.16057638.09691377-.10705092.19382755-.16057638.29074132-.21410184z" fill="#be202e" opacity=".35"/><path d="m6.42285142 7.00813374c.04091915 0 .0818383 0 .12275744-.05352546.1636766-.05352546.32735319-.16057638.49102979-.21410184-.20459574.05352546-.40919149.16057638-.61378723.2676273z" fill="#be202e"/><path d="m6.42285142 7.00813374c.04091915 0 .0818383 0 .12275744-.05352546.1636766-.05352546.32735319-.16057638.49102979-.21410184-.20459574.05352546-.40919149.16057638-.61378723.2676273z" fill="#be202e" opacity=".35"/><path d="m5.6289539 4.48085021c.16539532-.26442785.33079063-.52885571.49618595-.77886023.17642167-.26442785.34733016-.51924015.52926501-.76443689.01102635-.01442334.02205271-.02884667.03307906-.04327001.17642167-.24038896.35284334-.47597014.52926501-.69712799l-.54029136-.88463137c-.03859224.04327001-.08269766.08654003-.1212899.12981004-.15436896.16827227-.3142511.35096788-.47964641.54327905-.18744803.21635006-.37489605.44712347-.57337043.6923202-.18193485.22596563-.3638697.45673903-.54580454.70193577-.15436896.2067345-.30873792.41827679-.46310689.63943463-.00551317.00961556-.01102635.01442334-.01653953.0240389l.7001735 1.20675258c.14885579-.26442786.29771157-.51924016.45208053-.76924468z" fill="url(#c)"/><path d="m2.44233749 11.2694344c-.09372401.2211579-.18744802.4471235-.28117203.6778969 0 .0048078 0 .0048078-.00551318.0096156-.01102636.0336544-.02756589.0673089-.03859224.0961556-.06064495.1538489-.11577672.2932745-.2425798.6153957.20398756.0817322 2.05641509-.3173134 2.50849562-.9663636.03859224-.0576934.07718448-.1201945.11026354-.1826956-.20398755.2259656-.46310688.3221212-.94275329.3028901.70568668-.2740435 1.05853002-.5384713 1.37278111-.980787.07167131-.1057711.14885579-.2163501.22052709-.3413523-.61747584.5528946-1.33418888.7115513-2.08949415.5913568l-.56785725.0528856c-.00551318.04327-.02756589.08654-.04410542.1250022z" fill="url(#e)"/><path d="m2.70697 10.168453c.12128989-.27404341.24809297-.5528946.37489605-.83655357.12128989-.26923564.24809297-.53847127.38040922-.81251469.13231625-.27404341.26463251-.54327905.39694876-.81732246.13782943-.27885119.28117203-.55770239.42451464-.8317458.14334261-.27404342.28668521-.54327905.435541-.81251469.05513177-.09615558.10475037-.19231117.15988214-.28846675.09372401-.16827227.18744802-.33173676.28117203-.49520126.00551318-.00961556.01102636-.01923111.01653953-.02403889l-.7001735-1.21156036c-.01102635.01442334-.02205271.03365445-.03307906.04807779-.16539532.2307734-.32527745.47116236-.48515959.71155132-.15988214.24519674-.31976428.49520126-.47413324.74520578-.13231625.21154228-.25911933.42789235-.38040923.64424241-.02756588.04327001-.04961859.08654003-.0716713.12981004-.15436896.27404341-.29219839.53847127-.41348829.79328357-.1433426.28846675-.2646325.56251016-.37489605.82213024-.0716713.17308005-.13782943.33654454-.19847438.49520126-.04961859.13461782-.09372401.27404341-.13782942.40866123-.10475037.31731343-.19296121.63943463-.27014569.95674806l.70017351 1.21636817c.09372401-.2163501.18744802-.4375079.28668521-.6586658.02756589-.0576933.05513177-.1201945.08269766-.1826956z" fill="url(#f)"/><path d="m1.62638727 9.84152402c-.08821084.38943008-.14885578.77405248-.18193485 1.15867478 0 .0144233-.05311796 1.3099029.0496186 1.5432971-.11873697.2939722-.29741441.7509289-.53603232 1.3708701l.26037332-.1233051c.27893193-.7135634.50129679-1.2720491.66709458-1.6754573.02756588-.0625011.04961859-.1250023.07718448-.1875034.00551317-.0192311.01653953-.0336545.02205271-.0528856.09372401-.2259656.1929612-.4615468.29219839-.697128.02205271-.0528855.04410541-.1057711.0716713-.1634645 0 0-.23339117-.405456-.7001735-1.21636809-.01653953.01923112-.01653953.03365445-.02205271.04327001z" fill="url(#g)"/><path d="m5.28713692 5.34625047c-.02205271.03365446-.03859224.07211669-.06064495.11057892-.06064495.11057892-.1212899.22115785-.18193485.33173677-.06615812.12500226-.13231625.25000452-.20398755.37981455-.03307907.06250113-.07167131.12981004-.10475037.19711895-.10475037.19711895-.20950073.40385345-.31976428.61539574-.13231625.25962008-.2646325.52885571-.40246193.81251468-.13231625.26923564-.26463251.54327905-.39694876.83174581-.12680307.27404341-.25360615.5528946-.3859224.84136136-.11577672.25962007-.23155344.52404793-.35284334.79328355-.00551318.0144234-.01102635.0240389-.01653953.0384622-.11577672.2692357-.23706662.5480869-.35284334.8317458 0 .0048078-.00551318.0144234-.00551318.0192312l.56785725-.0528856c-.01102635 0-.02205271-.0048078-.03307906-.0048078.67812079-.0721167 1.57676867-.5144324 2.15565228-1.0577114.27014568-.25000453.51272547-.54808684.73325256-.89424694.16539532-.25962008.32527746-.54327905.47413324-.86059248.13231625-.27885119 1.58779503-3.36544544 1.59882138-3.40390767-.0147018.00961556-.91702514.15865671-2.70696999.44712346 0 .01442334-.00551318.01923112-.00551318.0240389z" fill="url(#h)"/><path d="m7.28290706 2.21157843c-.15988214.21154229-.33079063.45193125-.51823866.72597466-.01102635.01442334-.02205271.02884668-.02756588.04327001-.15988214.23558118-.33079063.49520126-.5072123.77886023-.15436896.24519674-.3142511.50481682-.4851596.78847579-.1433426.24519674-.29771156.50481682-.45208052.78366801 1.78903612-.29163608 2.69141342-.44247562 2.70713189-.45251863.01495647-.00955615.58974806-1.14366406.7496302-1.4128997.15436896-.26442785.29219839-.52404793.39694876-.75962911.06615812-.14904116.12128989-.28846675.15436896-.40866123.03307906-.10577114.05513177-.21154229.07718448-.30769787-.69466033.10096336-1.54368961.19711895-2.09500733.22115784z" fill="url(#i)"/></g></g></g></svg>